<?xml version="1.0" encoding="UTF-8" standalone="no"?>
<!DOCTYPE svg PUBLIC "-//W3C//DTD SVG 1.1//EN"
 "http://www.w3.org/Graphics/SVG/1.1/DTD/svg11.dtd">
<!-- Generated by graphviz version 7.0.6 (20230106.0513)
 -->
<!-- Title: G Pages: 1 -->
<svg width="668pt" height="999pt"
 viewBox="0.00 0.00 668.00 999.00" xmlns="http://www.w3.org/2000/svg" xmlns:xlink="http://www.w3.org/1999/xlink">
<g id="graph0" class="graph" transform="scale(1 1) rotate(0) translate(4 995)">
<title>G</title>
<polygon fill="white" stroke="none" points="-4,4 -4,-995 664,-995 664,4 -4,4"/>
<g id="clust1" class="cluster">
<title>cluster_0</title>
<polygon fill="lightgrey" stroke="lightgrey" points="8,-368 8,-947 332,-947 332,-368 8,-368"/>
<text text-anchor="middle" x="170" y="-931.8" font-family="Helvetica,Arial,sans-serif" font-size="14.00">Interpretation</text>
</g>
<g id="clust2" class="cluster">
<title>cluster_1</title>
<polygon fill="none" stroke="blue" points="340,-8 340,-947 652,-947 652,-8 340,-8"/>
<text text-anchor="middle" x="496" y="-931.8" font-family="Helvetica,Arial,sans-serif" font-size="14.00">Function Compilation</text>
</g>
<!-- a0 -->
<g id="node1" class="node">
<title>a0</title>
<ellipse fill="white" stroke="white" cx="213" cy="-898" rx="53.09" ry="18"/>
<text text-anchor="middle" x="213" y="-894.3" font-family="Helvetica,Arial,sans-serif" font-size="14.00">read forms</text>
</g>
<!-- a1 -->
<g id="node2" class="node">
<title>a1</title>
<ellipse fill="white" stroke="white" cx="156" cy="-826" rx="92.08" ry="18"/>
<text text-anchor="middle" x="156" y="-822.3" font-family="Helvetica,Arial,sans-serif" font-size="14.00">expand quasi&#45;quotes</text>
</g>
<!-- a0&#45;&gt;a1 -->
<g id="edge1" class="edge">
<title>a0&#45;&gt;a1</title>
<path fill="none" stroke="black" d="M199.49,-880.41C192.78,-872.16 184.51,-862.01 176.99,-852.78"/>
<polygon fill="black" stroke="black" points="179.79,-850.67 170.76,-845.13 174.36,-855.09 179.79,-850.67"/>
</g>
<!-- a2 -->
<g id="node3" class="node">
<title>a2</title>
<ellipse fill="white" stroke="white" cx="122" cy="-754" rx="71.49" ry="18"/>
<text text-anchor="middle" x="122" y="-750.3" font-family="Helvetica,Arial,sans-serif" font-size="14.00">expand macros</text>
</g>
<!-- a1&#45;&gt;a2 -->
<g id="edge2" class="edge">
<title>a1&#45;&gt;a2</title>
<path fill="none" stroke="black" d="M147.6,-807.7C143.89,-800.07 139.44,-790.92 135.31,-782.4"/>
<polygon fill="black" stroke="black" points="138.49,-780.93 130.97,-773.47 132.19,-783.99 138.49,-780.93"/>
</g>
<!-- a3 -->
<g id="node4" class="node">
<title>a3</title>
<ellipse fill="white" stroke="white" cx="205" cy="-682" rx="118.88" ry="18"/>
<text text-anchor="middle" x="205" y="-678.3" font-family="Helvetica,Arial,sans-serif" font-size="14.00">validate special form syntax</text>
</g>
<!-- a2&#45;&gt;a3 -->
<g id="edge3" class="edge">
<title>a2&#45;&gt;a3</title>
<path fill="none" stroke="black" d="M141.67,-736.41C151.88,-727.8 164.56,-717.1 175.89,-707.55"/>
<polygon fill="black" stroke="black" points="178.06,-710.3 183.45,-701.18 173.55,-704.95 178.06,-710.3"/>
</g>
<!-- a7 -->
<g id="node8" class="node">
<title>a7</title>
<ellipse fill="white" stroke="white" cx="170" cy="-394" rx="154.07" ry="18"/>
<text text-anchor="middle" x="170" y="-390.3" font-family="Helvetica,Arial,sans-serif" font-size="14.00">evaluate arguments and call function</text>
</g>
<!-- a2&#45;&gt;a7 -->
<g id="edge8" class="edge">
<title>a2&#45;&gt;a7</title>
<path fill="none" stroke="black" d="M95.97,-736.91C85.2,-727.23 74.08,-714.07 68,-700 52.21,-663.46 58,-650.8 58,-611 58,-611 58,-611 58,-537 58,-494.33 68.42,-482.15 94,-448 102.34,-436.87 113.55,-426.79 124.86,-418.47"/>
<polygon fill="black" stroke="black" points="126.85,-421.35 133.08,-412.78 122.87,-415.6 126.85,-421.35"/>
</g>
<!-- a4 -->
<g id="node5" class="node">
<title>a4</title>
<ellipse fill="white" stroke="white" cx="205" cy="-610" rx="53.89" ry="18"/>
<text text-anchor="middle" x="205" y="-606.3" font-family="Helvetica,Arial,sans-serif" font-size="14.00">create defs</text>
</g>
<!-- a3&#45;&gt;a4 -->
<g id="edge4" class="edge">
<title>a3&#45;&gt;a4</title>
<path fill="none" stroke="black" d="M205,-663.7C205,-656.41 205,-647.73 205,-639.54"/>
<polygon fill="black" stroke="black" points="208.5,-639.62 205,-629.62 201.5,-639.62 208.5,-639.62"/>
</g>
<!-- a5 -->
<g id="node6" class="node">
<title>a5</title>
<ellipse fill="white" stroke="white" cx="205" cy="-538" rx="103.98" ry="18"/>
<text text-anchor="middle" x="205" y="-534.3" font-family="Helvetica,Arial,sans-serif" font-size="14.00">evaluate top level forms</text>
</g>
<!-- a4&#45;&gt;a5 -->
<g id="edge5" class="edge">
<title>a4&#45;&gt;a5</title>
<path fill="none" stroke="black" d="M205,-591.7C205,-584.41 205,-575.73 205,-567.54"/>
<polygon fill="black" stroke="black" points="208.5,-567.62 205,-557.62 201.5,-567.62 208.5,-567.62"/>
</g>
<!-- a6 -->
<g id="node7" class="node">
<title>a6</title>
<ellipse fill="white" stroke="white" cx="205" cy="-466" rx="92.88" ry="18"/>
<text text-anchor="middle" x="205" y="-462.3" font-family="Helvetica,Arial,sans-serif" font-size="14.00">evaluate expressions</text>
</g>
<!-- a5&#45;&gt;a6 -->
<g id="edge6" class="edge">
<title>a5&#45;&gt;a6</title>
<path fill="none" stroke="black" d="M205,-519.7C205,-512.41 205,-503.73 205,-495.54"/>
<polygon fill="black" stroke="black" points="208.5,-495.62 205,-485.62 201.5,-495.62 208.5,-495.62"/>
</g>
<!-- a6&#45;&gt;a7 -->
<g id="edge7" class="edge">
<title>a6&#45;&gt;a7</title>
<path fill="none" stroke="black" d="M196.35,-447.7C192.53,-440.07 187.96,-430.92 183.7,-422.4"/>
<polygon fill="black" stroke="black" points="186.83,-420.84 179.23,-413.46 180.57,-423.97 186.83,-420.84"/>
</g>
<!-- b0 -->
<g id="node9" class="node">
<title>b0</title>
<ellipse fill="lightgrey" stroke="black" cx="416" cy="-898" rx="67.69" ry="18"/>
<text text-anchor="middle" x="416" y="-894.3" font-family="Helvetica,Arial,sans-serif" font-size="14.00">extract closure</text>
</g>
<!-- a6&#45;&gt;b0 -->
<g id="edge24" class="edge">
<title>a6&#45;&gt;b0</title>
<path fill="none" stroke="black" d="M256.07,-481.45C277.58,-489.74 301.41,-502.14 318,-520 346.82,-551.02 352,-566.66 352,-609 352,-755 352,-755 352,-755 352,-798.59 377.38,-843.59 396.17,-870.94"/>
<polygon fill="black" stroke="black" points="393.22,-872.82 401.86,-878.95 398.92,-868.77 393.22,-872.82"/>
</g>
<!-- a7&#45;&gt;a2 -->
<g id="edge9" class="edge">
<title>a7&#45;&gt;a2</title>
<path fill="none" stroke="black" d="M150.16,-412.15C137.8,-421.43 122.58,-433.87 112,-448 86.42,-482.15 76,-494.33 76,-537 76,-611 76,-611 76,-611 76,-650.8 70.21,-663.46 86,-700 90.2,-709.72 96.8,-718.99 103.31,-726.99"/>
<polygon fill="black" stroke="black" points="100.62,-729.24 109.77,-734.6 105.96,-724.71 100.62,-729.24"/>
</g>
<!-- b1 -->
<g id="node10" class="node">
<title>b1</title>
<ellipse fill="lightgrey" stroke="black" cx="475" cy="-826" rx="65.79" ry="18"/>
<text text-anchor="middle" x="475" y="-822.3" font-family="Helvetica,Arial,sans-serif" font-size="14.00">deduce scope</text>
</g>
<!-- b0&#45;&gt;b1 -->
<g id="edge10" class="edge">
<title>b0&#45;&gt;b1</title>
<path fill="none" stroke="black" d="M430.28,-880.05C437.24,-871.8 445.75,-861.7 453.48,-852.54"/>
<polygon fill="black" stroke="black" points="456.11,-854.85 459.87,-844.95 450.75,-850.34 456.11,-854.85"/>
</g>
<!-- b2 -->
<g id="node11" class="node">
<title>b2</title>
<ellipse fill="lightgrey" stroke="black" cx="504" cy="-754" rx="124.28" ry="18"/>
<text text-anchor="middle" x="504" y="-750.3" font-family="Helvetica,Arial,sans-serif" font-size="14.00">replace complex quoted data</text>
</g>
<!-- b1&#45;&gt;b2 -->
<g id="edge11" class="edge">
<title>b1&#45;&gt;b2</title>
<path fill="none" stroke="black" d="M482.17,-807.7C485.29,-800.15 489.04,-791.12 492.53,-782.68"/>
<polygon fill="black" stroke="black" points="495.74,-784.08 496.33,-773.5 489.27,-781.4 495.74,-784.08"/>
</g>
<!-- b3 -->
<g id="node12" class="node">
<title>b3</title>
<ellipse fill="lightgrey" stroke="black" cx="500" cy="-682" rx="87.18" ry="18"/>
<text text-anchor="middle" x="500" y="-678.3" font-family="Helvetica,Arial,sans-serif" font-size="14.00">replace data literals</text>
</g>
<!-- b2&#45;&gt;b3 -->
<g id="edge12" class="edge">
<title>b2&#45;&gt;b3</title>
<path fill="none" stroke="black" d="M503.01,-735.7C502.59,-728.41 502.1,-719.73 501.63,-711.54"/>
<polygon fill="black" stroke="black" points="505.13,-711.4 501.06,-701.62 498.14,-711.8 505.13,-711.4"/>
</g>
<!-- b4 -->
<g id="node13" class="node">
<title>b4</title>
<ellipse fill="lightgrey" stroke="black" cx="499" cy="-610" rx="65.79" ry="18"/>
<text text-anchor="middle" x="499" y="-606.3" font-family="Helvetica,Arial,sans-serif" font-size="14.00">hoist lambdas</text>
</g>
<!-- b3&#45;&gt;b4 -->
<g id="edge13" class="edge">
<title>b3&#45;&gt;b4</title>
<path fill="none" stroke="black" d="M499.75,-663.7C499.65,-656.41 499.52,-647.73 499.41,-639.54"/>
<polygon fill="black" stroke="black" points="502.91,-639.57 499.27,-629.62 495.91,-639.67 502.91,-639.57"/>
</g>
<!-- b5 -->
<g id="node14" class="node">
<title>b5</title>
<ellipse fill="lightgrey" stroke="black" cx="499" cy="-538" rx="109.38" ry="18"/>
<text text-anchor="middle" x="499" y="-534.3" font-family="Helvetica,Arial,sans-serif" font-size="14.00">resolve qualified symbols</text>
</g>
<!-- b4&#45;&gt;b5 -->
<g id="edge14" class="edge">
<title>b4&#45;&gt;b5</title>
<path fill="none" stroke="black" d="M499,-591.7C499,-584.41 499,-575.73 499,-567.54"/>
<polygon fill="black" stroke="black" points="502.5,-567.62 499,-557.62 495.5,-567.62 502.5,-567.62"/>
</g>
<!-- b6 -->
<g id="node15" class="node">
<title>b6</title>
<ellipse fill="lightgrey" stroke="black" cx="499" cy="-466" rx="118.88" ry="18"/>
<text text-anchor="middle" x="499" y="-462.3" font-family="Helvetica,Arial,sans-serif" font-size="14.00">nest loop within recursive fn</text>
</g>
<!-- b5&#45;&gt;b6 -->
<g id="edge15" class="edge">
<title>b5&#45;&gt;b6</title>
<path fill="none" stroke="black" d="M499,-519.7C499,-512.41 499,-503.73 499,-495.54"/>
<polygon fill="black" stroke="black" points="502.5,-495.62 499,-485.62 495.5,-495.62 502.5,-495.62"/>
</g>
<!-- b7 -->
<g id="node16" class="node">
<title>b7</title>
<ellipse fill="lightgrey" stroke="black" cx="499" cy="-394" rx="121.58" ry="18"/>
<text text-anchor="middle" x="499" y="-390.3" font-family="Helvetica,Arial,sans-serif" font-size="14.00">replace loop/recur with while</text>
</g>
<!-- b6&#45;&gt;b7 -->
<g id="edge16" class="edge">
<title>b6&#45;&gt;b7</title>
<path fill="none" stroke="black" d="M499,-447.7C499,-440.41 499,-431.73 499,-423.54"/>
<polygon fill="black" stroke="black" points="502.5,-423.62 499,-413.62 495.5,-423.62 502.5,-423.62"/>
</g>
<!-- b8 -->
<g id="node17" class="node">
<title>b8</title>
<ellipse fill="lightgrey" stroke="black" cx="497" cy="-322" rx="100.98" ry="18"/>
<text text-anchor="middle" x="497" y="-318.3" font-family="Helvetica,Arial,sans-serif" font-size="14.00">convert to intermediate</text>
</g>
<!-- b7&#45;&gt;b8 -->
<g id="edge17" class="edge">
<title>b7&#45;&gt;b8</title>
<path fill="none" stroke="black" d="M498.51,-375.7C498.3,-368.41 498.05,-359.73 497.82,-351.54"/>
<polygon fill="black" stroke="black" points="501.32,-351.51 497.53,-341.62 494.32,-351.71 501.32,-351.51"/>
</g>
<!-- b9 -->
<g id="node18" class="node">
<title>b9</title>
<ellipse fill="lightgrey" stroke="black" cx="496" cy="-250" rx="147.57" ry="18"/>
<text text-anchor="middle" x="496" y="-246.3" font-family="Helvetica,Arial,sans-serif" font-size="14.00">convert &#39;if&#39; expression &#45;&gt; statement</text>
</g>
<!-- b8&#45;&gt;b9 -->
<g id="edge18" class="edge">
<title>b8&#45;&gt;b9</title>
<path fill="none" stroke="black" d="M496.75,-303.7C496.65,-296.41 496.52,-287.73 496.41,-279.54"/>
<polygon fill="black" stroke="black" points="499.91,-279.57 496.27,-269.62 492.91,-279.67 499.91,-279.57"/>
</g>
<!-- b10 -->
<g id="node19" class="node">
<title>b10</title>
<ellipse fill="lightgrey" stroke="black" cx="487" cy="-178" rx="75.29" ry="18"/>
<text text-anchor="middle" x="487" y="-174.3" font-family="Helvetica,Arial,sans-serif" font-size="14.00">hoist statements</text>
</g>
<!-- b9&#45;&gt;b10 -->
<g id="edge19" class="edge">
<title>b9&#45;&gt;b10</title>
<path fill="none" stroke="black" d="M493.78,-231.7C492.83,-224.32 491.7,-215.52 490.63,-207.25"/>
<polygon fill="black" stroke="black" points="494.14,-207.08 489.39,-197.61 487.2,-207.97 494.14,-207.08"/>
</g>
<!-- b11 -->
<g id="node20" class="node">
<title>b11</title>
<ellipse fill="lightgrey" stroke="black" cx="452" cy="-106" rx="57.39" ry="18"/>
<text text-anchor="middle" x="452" y="-102.3" font-family="Helvetica,Arial,sans-serif" font-size="14.00">place return</text>
</g>
<!-- b10&#45;&gt;b11 -->
<g id="edge20" class="edge">
<title>b10&#45;&gt;b11</title>
<path fill="none" stroke="black" d="M478.35,-159.7C474.53,-152.07 469.96,-142.92 465.7,-134.4"/>
<polygon fill="black" stroke="black" points="468.83,-132.84 461.23,-125.46 462.57,-135.97 468.83,-132.84"/>
</g>
<!-- b12 -->
<g id="node21" class="node">
<title>b12</title>
<ellipse fill="lightgrey" stroke="black" cx="443" cy="-34" rx="77.99" ry="18"/>
<text text-anchor="middle" x="443" y="-30.3" font-family="Helvetica,Arial,sans-serif" font-size="14.00">convert to python</text>
</g>
<!-- b11&#45;&gt;b12 -->
<g id="edge21" class="edge">
<title>b11&#45;&gt;b12</title>
<path fill="none" stroke="black" d="M449.78,-87.7C448.83,-80.32 447.7,-71.52 446.63,-63.25"/>
<polygon fill="black" stroke="black" points="450.14,-63.08 445.39,-53.61 443.2,-63.97 450.14,-63.08"/>
</g>
<!-- b12&#45;&gt;a7 -->
<g id="edge25" class="edge">
<title>b12&#45;&gt;a7</title>
<path fill="none" stroke="black" d="M391.24,-47.88C332.57,-65.95 245,-104.98 245,-177 245,-251 245,-251 245,-251 245,-295.64 215.66,-339.99 193.68,-366.95"/>
<polygon fill="black" stroke="black" points="191.02,-364.68 187.25,-374.58 196.37,-369.19 191.02,-364.68"/>
</g>
<!-- start -->
<g id="node22" class="node">
<title>start</title>
</g>
<!-- start&#45;&gt;a0 -->
<g id="edge22" class="edge">
<title>start&#45;&gt;a0</title>
<path fill="none" stroke="lightgrey" d="M316.06,-956.87C293.6,-944.26 261.78,-926.39 239.46,-913.86"/>
</g>
<!-- start&#45;&gt;b0 -->
<g id="edge23" class="edge">
<title>start&#45;&gt;b0</title>
<path fill="none" stroke="white" d="M359.93,-955.07C371.72,-943.28 387.39,-927.61 399.16,-915.84"/>
</g>
</g>
</svg>
