<?xml version="1.0" encoding="UTF-8" standalone="no"?>
<!DOCTYPE svg PUBLIC "-//W3C//DTD SVG 1.1//EN"
 "http://www.w3.org/Graphics/SVG/1.1/DTD/svg11.dtd">
<!-- Generated by graphviz version 7.0.6 (20230106.0513)
 -->
<!-- Pages: 1 -->
<svg width="1170pt" height="349pt"
 viewBox="0.00 0.00 1170.00 349.00" xmlns="http://www.w3.org/2000/svg" xmlns:xlink="http://www.w3.org/1999/xlink">
<g id="graph0" class="graph" transform="scale(1 1) rotate(0) translate(4 345)">
<polygon fill="white" stroke="none" points="-4,4 -4,-345 1166,-345 1166,4 -4,4"/>
<g id="clust1" class="cluster">
<title>cluster0</title>
<polygon fill="none" stroke="black" points="8,-8 8,-333 1154,-333 1154,-8 8,-8"/>
<text text-anchor="middle" x="581" y="-317.8" font-family="monospace" font-size="14.00">{:these &quot;maps&quot; :are &quot;strange&quot; :they &quot;look&quot; :rather &quot;empty&quot;}</text>
</g>
<!-- 4304063872 -->
<g id="node1" class="node">
<title>4304063872</title>
<polygon fill="none" stroke="black" points="394,-255.5 394,-301.5 1146,-301.5 1146,-255.5 394,-255.5"/>
<text text-anchor="middle" x="714" y="-286.3" font-family="Helvetica,Arial,sans-serif" font-size="14.00">xs</text>
<polyline fill="none" stroke="black" points="394,-278.5 1034,-278.5"/>
<text text-anchor="middle" x="404" y="-263.3" font-family="Helvetica,Arial,sans-serif" font-size="14.00"> </text>
<polyline fill="none" stroke="black" points="414,-255.5 414,-278.5"/>
<text text-anchor="middle" x="424" y="-263.3" font-family="Helvetica,Arial,sans-serif" font-size="14.00"> </text>
<polyline fill="none" stroke="black" points="434,-255.5 434,-278.5"/>
<text text-anchor="middle" x="444" y="-263.3" font-family="Helvetica,Arial,sans-serif" font-size="14.00"> </text>
<polyline fill="none" stroke="black" points="454,-255.5 454,-278.5"/>
<text text-anchor="middle" x="464" y="-263.3" font-family="Helvetica,Arial,sans-serif" font-size="14.00"> </text>
<polyline fill="none" stroke="black" points="474,-255.5 474,-278.5"/>
<text text-anchor="middle" x="484" y="-263.3" font-family="Helvetica,Arial,sans-serif" font-size="14.00"> </text>
<polyline fill="none" stroke="black" points="494,-255.5 494,-278.5"/>
<text text-anchor="middle" x="504" y="-263.3" font-family="Helvetica,Arial,sans-serif" font-size="14.00"> </text>
<polyline fill="none" stroke="black" points="514,-255.5 514,-278.5"/>
<text text-anchor="middle" x="524" y="-263.3" font-family="Helvetica,Arial,sans-serif" font-size="14.00"> </text>
<polyline fill="none" stroke="black" points="534,-255.5 534,-278.5"/>
<text text-anchor="middle" x="544" y="-263.3" font-family="Helvetica,Arial,sans-serif" font-size="14.00"> </text>
<polyline fill="none" stroke="black" points="554,-255.5 554,-278.5"/>
<text text-anchor="middle" x="564" y="-263.3" font-family="Helvetica,Arial,sans-serif" font-size="14.00"> </text>
<polyline fill="none" stroke="black" points="574,-255.5 574,-278.5"/>
<text text-anchor="middle" x="584" y="-263.3" font-family="Helvetica,Arial,sans-serif" font-size="14.00"> </text>
<polyline fill="none" stroke="black" points="594,-255.5 594,-278.5"/>
<text text-anchor="middle" x="604" y="-263.3" font-family="Helvetica,Arial,sans-serif" font-size="14.00"> </text>
<polyline fill="none" stroke="black" points="614,-255.5 614,-278.5"/>
<text text-anchor="middle" x="624" y="-263.3" font-family="Helvetica,Arial,sans-serif" font-size="14.00"> </text>
<polyline fill="none" stroke="black" points="634,-255.5 634,-278.5"/>
<text text-anchor="middle" x="644" y="-263.3" font-family="Helvetica,Arial,sans-serif" font-size="14.00"> </text>
<polyline fill="none" stroke="black" points="654,-255.5 654,-278.5"/>
<text text-anchor="middle" x="664" y="-263.3" font-family="Helvetica,Arial,sans-serif" font-size="14.00"> </text>
<polyline fill="none" stroke="black" points="674,-255.5 674,-278.5"/>
<text text-anchor="middle" x="684" y="-263.3" font-family="Helvetica,Arial,sans-serif" font-size="14.00"> </text>
<polyline fill="none" stroke="black" points="694,-255.5 694,-278.5"/>
<text text-anchor="middle" x="704" y="-263.3" font-family="Helvetica,Arial,sans-serif" font-size="14.00"> </text>
<polyline fill="none" stroke="black" points="714,-255.5 714,-278.5"/>
<text text-anchor="middle" x="724" y="-263.3" font-family="Helvetica,Arial,sans-serif" font-size="14.00"> </text>
<polyline fill="none" stroke="black" points="734,-255.5 734,-278.5"/>
<text text-anchor="middle" x="744" y="-263.3" font-family="Helvetica,Arial,sans-serif" font-size="14.00"> </text>
<polyline fill="none" stroke="black" points="754,-255.5 754,-278.5"/>
<text text-anchor="middle" x="764" y="-263.3" font-family="Helvetica,Arial,sans-serif" font-size="14.00"> </text>
<polyline fill="none" stroke="black" points="774,-255.5 774,-278.5"/>
<text text-anchor="middle" x="784" y="-263.3" font-family="Helvetica,Arial,sans-serif" font-size="14.00"> </text>
<polyline fill="none" stroke="black" points="794,-255.5 794,-278.5"/>
<text text-anchor="middle" x="804" y="-263.3" font-family="Helvetica,Arial,sans-serif" font-size="14.00"> </text>
<polyline fill="none" stroke="black" points="814,-255.5 814,-278.5"/>
<text text-anchor="middle" x="824" y="-263.3" font-family="Helvetica,Arial,sans-serif" font-size="14.00"> </text>
<polyline fill="none" stroke="black" points="834,-255.5 834,-278.5"/>
<text text-anchor="middle" x="844" y="-263.3" font-family="Helvetica,Arial,sans-serif" font-size="14.00"> </text>
<polyline fill="none" stroke="black" points="854,-255.5 854,-278.5"/>
<text text-anchor="middle" x="864" y="-263.3" font-family="Helvetica,Arial,sans-serif" font-size="14.00"> </text>
<polyline fill="none" stroke="black" points="874,-255.5 874,-278.5"/>
<text text-anchor="middle" x="884" y="-263.3" font-family="Helvetica,Arial,sans-serif" font-size="14.00"> </text>
<polyline fill="none" stroke="black" points="894,-255.5 894,-278.5"/>
<text text-anchor="middle" x="904" y="-263.3" font-family="Helvetica,Arial,sans-serif" font-size="14.00"> </text>
<polyline fill="none" stroke="black" points="914,-255.5 914,-278.5"/>
<text text-anchor="middle" x="924" y="-263.3" font-family="Helvetica,Arial,sans-serif" font-size="14.00"> </text>
<polyline fill="none" stroke="black" points="934,-255.5 934,-278.5"/>
<text text-anchor="middle" x="944" y="-263.3" font-family="Helvetica,Arial,sans-serif" font-size="14.00"> </text>
<polyline fill="none" stroke="black" points="954,-255.5 954,-278.5"/>
<text text-anchor="middle" x="964" y="-263.3" font-family="Helvetica,Arial,sans-serif" font-size="14.00"> </text>
<polyline fill="none" stroke="black" points="974,-255.5 974,-278.5"/>
<text text-anchor="middle" x="984" y="-263.3" font-family="Helvetica,Arial,sans-serif" font-size="14.00"> </text>
<polyline fill="none" stroke="black" points="994,-255.5 994,-278.5"/>
<text text-anchor="middle" x="1004" y="-263.3" font-family="Helvetica,Arial,sans-serif" font-size="14.00"> </text>
<polyline fill="none" stroke="black" points="1014,-255.5 1014,-278.5"/>
<text text-anchor="middle" x="1024" y="-263.3" font-family="Helvetica,Arial,sans-serif" font-size="14.00"> </text>
<polyline fill="none" stroke="black" points="1034,-255.5 1034,-301.5"/>
<text text-anchor="middle" x="1063.5" y="-286.3" font-family="Helvetica,Arial,sans-serif" font-size="14.00">kindset</text>
<polyline fill="none" stroke="black" points="1034,-278.5 1093,-278.5"/>
<text text-anchor="middle" x="1063.5" y="-263.3" font-family="Helvetica,Arial,sans-serif" font-size="14.00">0b0</text>
<polyline fill="none" stroke="black" points="1093,-255.5 1093,-301.5"/>
<text text-anchor="middle" x="1119.5" y="-286.3" font-family="Helvetica,Arial,sans-serif" font-size="14.00">height</text>
<polyline fill="none" stroke="black" points="1093,-278.5 1146,-278.5"/>
<text text-anchor="middle" x="1119.5" y="-263.3" font-family="Helvetica,Arial,sans-serif" font-size="14.00">7</text>
</g>
<!-- 4304065856 -->
<g id="node2" class="node">
<title>4304065856</title>
<polygon fill="none" stroke="black" points="113,-172.5 113,-218.5 865,-218.5 865,-172.5 113,-172.5"/>
<text text-anchor="middle" x="433" y="-203.3" font-family="Helvetica,Arial,sans-serif" font-size="14.00">xs</text>
<polyline fill="none" stroke="black" points="113,-195.5 753,-195.5"/>
<text text-anchor="middle" x="123" y="-180.3" font-family="Helvetica,Arial,sans-serif" font-size="14.00"> </text>
<polyline fill="none" stroke="black" points="133,-172.5 133,-195.5"/>
<text text-anchor="middle" x="143" y="-180.3" font-family="Helvetica,Arial,sans-serif" font-size="14.00"> </text>
<polyline fill="none" stroke="black" points="153,-172.5 153,-195.5"/>
<text text-anchor="middle" x="163" y="-180.3" font-family="Helvetica,Arial,sans-serif" font-size="14.00"> </text>
<polyline fill="none" stroke="black" points="173,-172.5 173,-195.5"/>
<text text-anchor="middle" x="183" y="-180.3" font-family="Helvetica,Arial,sans-serif" font-size="14.00"> </text>
<polyline fill="none" stroke="black" points="193,-172.5 193,-195.5"/>
<text text-anchor="middle" x="203" y="-180.3" font-family="Helvetica,Arial,sans-serif" font-size="14.00"> </text>
<polyline fill="none" stroke="black" points="213,-172.5 213,-195.5"/>
<text text-anchor="middle" x="223" y="-180.3" font-family="Helvetica,Arial,sans-serif" font-size="14.00"> </text>
<polyline fill="none" stroke="black" points="233,-172.5 233,-195.5"/>
<text text-anchor="middle" x="243" y="-180.3" font-family="Helvetica,Arial,sans-serif" font-size="14.00"> </text>
<polyline fill="none" stroke="black" points="253,-172.5 253,-195.5"/>
<text text-anchor="middle" x="263" y="-180.3" font-family="Helvetica,Arial,sans-serif" font-size="14.00"> </text>
<polyline fill="none" stroke="black" points="273,-172.5 273,-195.5"/>
<text text-anchor="middle" x="283" y="-180.3" font-family="Helvetica,Arial,sans-serif" font-size="14.00"> </text>
<polyline fill="none" stroke="black" points="293,-172.5 293,-195.5"/>
<text text-anchor="middle" x="303" y="-180.3" font-family="Helvetica,Arial,sans-serif" font-size="14.00"> </text>
<polyline fill="none" stroke="black" points="313,-172.5 313,-195.5"/>
<text text-anchor="middle" x="323" y="-180.3" font-family="Helvetica,Arial,sans-serif" font-size="14.00"> </text>
<polyline fill="none" stroke="black" points="333,-172.5 333,-195.5"/>
<text text-anchor="middle" x="343" y="-180.3" font-family="Helvetica,Arial,sans-serif" font-size="14.00"> </text>
<polyline fill="none" stroke="black" points="353,-172.5 353,-195.5"/>
<text text-anchor="middle" x="363" y="-180.3" font-family="Helvetica,Arial,sans-serif" font-size="14.00"> </text>
<polyline fill="none" stroke="black" points="373,-172.5 373,-195.5"/>
<text text-anchor="middle" x="383" y="-180.3" font-family="Helvetica,Arial,sans-serif" font-size="14.00"> </text>
<polyline fill="none" stroke="black" points="393,-172.5 393,-195.5"/>
<text text-anchor="middle" x="403" y="-180.3" font-family="Helvetica,Arial,sans-serif" font-size="14.00"> </text>
<polyline fill="none" stroke="black" points="413,-172.5 413,-195.5"/>
<text text-anchor="middle" x="423" y="-180.3" font-family="Helvetica,Arial,sans-serif" font-size="14.00"> </text>
<polyline fill="none" stroke="black" points="433,-172.5 433,-195.5"/>
<text text-anchor="middle" x="443" y="-180.3" font-family="Helvetica,Arial,sans-serif" font-size="14.00"> </text>
<polyline fill="none" stroke="black" points="453,-172.5 453,-195.5"/>
<text text-anchor="middle" x="463" y="-180.3" font-family="Helvetica,Arial,sans-serif" font-size="14.00"> </text>
<polyline fill="none" stroke="black" points="473,-172.5 473,-195.5"/>
<text text-anchor="middle" x="483" y="-180.3" font-family="Helvetica,Arial,sans-serif" font-size="14.00"> </text>
<polyline fill="none" stroke="black" points="493,-172.5 493,-195.5"/>
<text text-anchor="middle" x="503" y="-180.3" font-family="Helvetica,Arial,sans-serif" font-size="14.00"> </text>
<polyline fill="none" stroke="black" points="513,-172.5 513,-195.5"/>
<text text-anchor="middle" x="523" y="-180.3" font-family="Helvetica,Arial,sans-serif" font-size="14.00"> </text>
<polyline fill="none" stroke="black" points="533,-172.5 533,-195.5"/>
<text text-anchor="middle" x="543" y="-180.3" font-family="Helvetica,Arial,sans-serif" font-size="14.00"> </text>
<polyline fill="none" stroke="black" points="553,-172.5 553,-195.5"/>
<text text-anchor="middle" x="563" y="-180.3" font-family="Helvetica,Arial,sans-serif" font-size="14.00"> </text>
<polyline fill="none" stroke="black" points="573,-172.5 573,-195.5"/>
<text text-anchor="middle" x="583" y="-180.3" font-family="Helvetica,Arial,sans-serif" font-size="14.00"> </text>
<polyline fill="none" stroke="black" points="593,-172.5 593,-195.5"/>
<text text-anchor="middle" x="603" y="-180.3" font-family="Helvetica,Arial,sans-serif" font-size="14.00"> </text>
<polyline fill="none" stroke="black" points="613,-172.5 613,-195.5"/>
<text text-anchor="middle" x="623" y="-180.3" font-family="Helvetica,Arial,sans-serif" font-size="14.00"> </text>
<polyline fill="none" stroke="black" points="633,-172.5 633,-195.5"/>
<text text-anchor="middle" x="643" y="-180.3" font-family="Helvetica,Arial,sans-serif" font-size="14.00"> </text>
<polyline fill="none" stroke="black" points="653,-172.5 653,-195.5"/>
<text text-anchor="middle" x="663" y="-180.3" font-family="Helvetica,Arial,sans-serif" font-size="14.00"> </text>
<polyline fill="none" stroke="black" points="673,-172.5 673,-195.5"/>
<text text-anchor="middle" x="683" y="-180.3" font-family="Helvetica,Arial,sans-serif" font-size="14.00"> </text>
<polyline fill="none" stroke="black" points="693,-172.5 693,-195.5"/>
<text text-anchor="middle" x="703" y="-180.3" font-family="Helvetica,Arial,sans-serif" font-size="14.00"> </text>
<polyline fill="none" stroke="black" points="713,-172.5 713,-195.5"/>
<text text-anchor="middle" x="723" y="-180.3" font-family="Helvetica,Arial,sans-serif" font-size="14.00"> </text>
<polyline fill="none" stroke="black" points="733,-172.5 733,-195.5"/>
<text text-anchor="middle" x="743" y="-180.3" font-family="Helvetica,Arial,sans-serif" font-size="14.00"> </text>
<polyline fill="none" stroke="black" points="753,-172.5 753,-218.5"/>
<text text-anchor="middle" x="782.5" y="-203.3" font-family="Helvetica,Arial,sans-serif" font-size="14.00">kindset</text>
<polyline fill="none" stroke="black" points="753,-195.5 812,-195.5"/>
<text text-anchor="middle" x="782.5" y="-180.3" font-family="Helvetica,Arial,sans-serif" font-size="14.00">0b11</text>
<polyline fill="none" stroke="black" points="812,-172.5 812,-218.5"/>
<text text-anchor="middle" x="838.5" y="-203.3" font-family="Helvetica,Arial,sans-serif" font-size="14.00">height</text>
<polyline fill="none" stroke="black" points="812,-195.5 865,-195.5"/>
<text text-anchor="middle" x="838.5" y="-180.3" font-family="Helvetica,Arial,sans-serif" font-size="14.00">6</text>
</g>
<!-- 4304063872&#45;&gt;4304065856 -->
<g id="edge6" class="edge">
<title>4304063872:f0&#45;&gt;4304065856</title>
<path fill="none" stroke="black" d="M404,-255C404,-242.92 409.9,-233.14 418.59,-225.29"/>
<polygon fill="black" stroke="black" points="420.65,-228.12 426.47,-219.27 416.4,-222.56 420.65,-228.12"/>
</g>
<!-- 4298867456 -->
<g id="node3" class="node">
<title>4298867456</title>
<polygon fill="none" stroke="black" points="16,-94.5 16,-130.5 126,-130.5 126,-94.5 16,-94.5"/>
<text text-anchor="middle" x="44" y="-108.8" font-family="Helvetica,Arial,sans-serif" font-size="14.00">:rather</text>
<polyline fill="none" stroke="black" points="72,-94.5 72,-130.5"/>
<text text-anchor="middle" x="99" y="-108.8" font-family="Helvetica,Arial,sans-serif" font-size="14.00">empty</text>
</g>
<!-- 4304065856&#45;&gt;4298867456 -->
<g id="edge1" class="edge">
<title>4304065856:f0&#45;&gt;4298867456</title>
<path fill="none" stroke="black" d="M123,-172C123,-158.86 115.58,-147.3 106.35,-138.01"/>
<polygon fill="black" stroke="black" points="108.82,-135.52 99.04,-131.45 104.15,-140.73 108.82,-135.52"/>
</g>
<!-- 4298867840 -->
<g id="node4" class="node">
<title>4298867840</title>
<polygon fill="none" stroke="black" points="144,-94.5 144,-130.5 246,-130.5 246,-94.5 144,-94.5"/>
<text text-anchor="middle" x="164" y="-108.8" font-family="Helvetica,Arial,sans-serif" font-size="14.00">:are</text>
<polyline fill="none" stroke="black" points="184,-94.5 184,-130.5"/>
<text text-anchor="middle" x="215" y="-108.8" font-family="Helvetica,Arial,sans-serif" font-size="14.00">strange</text>
</g>
<!-- 4304065856&#45;&gt;4298867840 -->
<g id="edge2" class="edge">
<title>4304065856:f1&#45;&gt;4298867840</title>
<path fill="none" stroke="black" d="M143,-172C143,-158.86 150.42,-147.3 159.65,-138.01"/>
<polygon fill="black" stroke="black" points="161.85,-140.73 166.96,-131.45 157.18,-135.52 161.85,-140.73"/>
</g>
<!-- 4298867200 -->
<g id="node5" class="node">
<title>4298867200</title>
<polygon fill="none" stroke="black" points="264,-89.5 264,-135.5 1146,-135.5 1146,-89.5 264,-89.5"/>
<text text-anchor="middle" x="584" y="-120.3" font-family="Helvetica,Arial,sans-serif" font-size="14.00">xs</text>
<polyline fill="none" stroke="black" points="264,-112.5 904,-112.5"/>
<text text-anchor="middle" x="274" y="-97.3" font-family="Helvetica,Arial,sans-serif" font-size="14.00"> </text>
<polyline fill="none" stroke="black" points="284,-89.5 284,-112.5"/>
<text text-anchor="middle" x="294" y="-97.3" font-family="Helvetica,Arial,sans-serif" font-size="14.00"> </text>
<polyline fill="none" stroke="black" points="304,-89.5 304,-112.5"/>
<text text-anchor="middle" x="314" y="-97.3" font-family="Helvetica,Arial,sans-serif" font-size="14.00"> </text>
<polyline fill="none" stroke="black" points="324,-89.5 324,-112.5"/>
<text text-anchor="middle" x="334" y="-97.3" font-family="Helvetica,Arial,sans-serif" font-size="14.00"> </text>
<polyline fill="none" stroke="black" points="344,-89.5 344,-112.5"/>
<text text-anchor="middle" x="354" y="-97.3" font-family="Helvetica,Arial,sans-serif" font-size="14.00"> </text>
<polyline fill="none" stroke="black" points="364,-89.5 364,-112.5"/>
<text text-anchor="middle" x="374" y="-97.3" font-family="Helvetica,Arial,sans-serif" font-size="14.00"> </text>
<polyline fill="none" stroke="black" points="384,-89.5 384,-112.5"/>
<text text-anchor="middle" x="394" y="-97.3" font-family="Helvetica,Arial,sans-serif" font-size="14.00"> </text>
<polyline fill="none" stroke="black" points="404,-89.5 404,-112.5"/>
<text text-anchor="middle" x="414" y="-97.3" font-family="Helvetica,Arial,sans-serif" font-size="14.00"> </text>
<polyline fill="none" stroke="black" points="424,-89.5 424,-112.5"/>
<text text-anchor="middle" x="434" y="-97.3" font-family="Helvetica,Arial,sans-serif" font-size="14.00"> </text>
<polyline fill="none" stroke="black" points="444,-89.5 444,-112.5"/>
<text text-anchor="middle" x="454" y="-97.3" font-family="Helvetica,Arial,sans-serif" font-size="14.00"> </text>
<polyline fill="none" stroke="black" points="464,-89.5 464,-112.5"/>
<text text-anchor="middle" x="474" y="-97.3" font-family="Helvetica,Arial,sans-serif" font-size="14.00"> </text>
<polyline fill="none" stroke="black" points="484,-89.5 484,-112.5"/>
<text text-anchor="middle" x="494" y="-97.3" font-family="Helvetica,Arial,sans-serif" font-size="14.00"> </text>
<polyline fill="none" stroke="black" points="504,-89.5 504,-112.5"/>
<text text-anchor="middle" x="514" y="-97.3" font-family="Helvetica,Arial,sans-serif" font-size="14.00"> </text>
<polyline fill="none" stroke="black" points="524,-89.5 524,-112.5"/>
<text text-anchor="middle" x="534" y="-97.3" font-family="Helvetica,Arial,sans-serif" font-size="14.00"> </text>
<polyline fill="none" stroke="black" points="544,-89.5 544,-112.5"/>
<text text-anchor="middle" x="554" y="-97.3" font-family="Helvetica,Arial,sans-serif" font-size="14.00"> </text>
<polyline fill="none" stroke="black" points="564,-89.5 564,-112.5"/>
<text text-anchor="middle" x="574" y="-97.3" font-family="Helvetica,Arial,sans-serif" font-size="14.00"> </text>
<polyline fill="none" stroke="black" points="584,-89.5 584,-112.5"/>
<text text-anchor="middle" x="594" y="-97.3" font-family="Helvetica,Arial,sans-serif" font-size="14.00"> </text>
<polyline fill="none" stroke="black" points="604,-89.5 604,-112.5"/>
<text text-anchor="middle" x="614" y="-97.3" font-family="Helvetica,Arial,sans-serif" font-size="14.00"> </text>
<polyline fill="none" stroke="black" points="624,-89.5 624,-112.5"/>
<text text-anchor="middle" x="634" y="-97.3" font-family="Helvetica,Arial,sans-serif" font-size="14.00"> </text>
<polyline fill="none" stroke="black" points="644,-89.5 644,-112.5"/>
<text text-anchor="middle" x="654" y="-97.3" font-family="Helvetica,Arial,sans-serif" font-size="14.00"> </text>
<polyline fill="none" stroke="black" points="664,-89.5 664,-112.5"/>
<text text-anchor="middle" x="674" y="-97.3" font-family="Helvetica,Arial,sans-serif" font-size="14.00"> </text>
<polyline fill="none" stroke="black" points="684,-89.5 684,-112.5"/>
<text text-anchor="middle" x="694" y="-97.3" font-family="Helvetica,Arial,sans-serif" font-size="14.00"> </text>
<polyline fill="none" stroke="black" points="704,-89.5 704,-112.5"/>
<text text-anchor="middle" x="714" y="-97.3" font-family="Helvetica,Arial,sans-serif" font-size="14.00"> </text>
<polyline fill="none" stroke="black" points="724,-89.5 724,-112.5"/>
<text text-anchor="middle" x="734" y="-97.3" font-family="Helvetica,Arial,sans-serif" font-size="14.00"> </text>
<polyline fill="none" stroke="black" points="744,-89.5 744,-112.5"/>
<text text-anchor="middle" x="754" y="-97.3" font-family="Helvetica,Arial,sans-serif" font-size="14.00"> </text>
<polyline fill="none" stroke="black" points="764,-89.5 764,-112.5"/>
<text text-anchor="middle" x="774" y="-97.3" font-family="Helvetica,Arial,sans-serif" font-size="14.00"> </text>
<polyline fill="none" stroke="black" points="784,-89.5 784,-112.5"/>
<text text-anchor="middle" x="794" y="-97.3" font-family="Helvetica,Arial,sans-serif" font-size="14.00"> </text>
<polyline fill="none" stroke="black" points="804,-89.5 804,-112.5"/>
<text text-anchor="middle" x="814" y="-97.3" font-family="Helvetica,Arial,sans-serif" font-size="14.00"> </text>
<polyline fill="none" stroke="black" points="824,-89.5 824,-112.5"/>
<text text-anchor="middle" x="834" y="-97.3" font-family="Helvetica,Arial,sans-serif" font-size="14.00"> </text>
<polyline fill="none" stroke="black" points="844,-89.5 844,-112.5"/>
<text text-anchor="middle" x="854" y="-97.3" font-family="Helvetica,Arial,sans-serif" font-size="14.00"> </text>
<polyline fill="none" stroke="black" points="864,-89.5 864,-112.5"/>
<text text-anchor="middle" x="874" y="-97.3" font-family="Helvetica,Arial,sans-serif" font-size="14.00"> </text>
<polyline fill="none" stroke="black" points="884,-89.5 884,-112.5"/>
<text text-anchor="middle" x="894" y="-97.3" font-family="Helvetica,Arial,sans-serif" font-size="14.00"> </text>
<polyline fill="none" stroke="black" points="904,-89.5 904,-135.5"/>
<text text-anchor="middle" x="998.5" y="-120.3" font-family="Helvetica,Arial,sans-serif" font-size="14.00">kindset</text>
<polyline fill="none" stroke="black" points="904,-112.5 1093,-112.5"/>
<text text-anchor="middle" x="998.5" y="-97.3" font-family="Helvetica,Arial,sans-serif" font-size="14.00">0b100000000000010000000</text>
<polyline fill="none" stroke="black" points="1093,-89.5 1093,-135.5"/>
<text text-anchor="middle" x="1119.5" y="-120.3" font-family="Helvetica,Arial,sans-serif" font-size="14.00">height</text>
<polyline fill="none" stroke="black" points="1093,-112.5 1146,-112.5"/>
<text text-anchor="middle" x="1119.5" y="-97.3" font-family="Helvetica,Arial,sans-serif" font-size="14.00">5</text>
</g>
<!-- 4304065856&#45;&gt;4298867200 -->
<g id="edge5" class="edge">
<title>4304065856:f3&#45;&gt;4298867200</title>
<path fill="none" stroke="black" d="M183,-172C183,-156.75 218.64,-145.48 271.29,-137.14"/>
<polygon fill="black" stroke="black" points="271.55,-140.64 280.92,-135.68 270.51,-133.72 271.55,-140.64"/>
</g>
<!-- 4298637248 -->
<g id="node6" class="node">
<title>4298637248</title>
<polygon fill="none" stroke="black" points="362.5,-16.5 362.5,-52.5 465.5,-52.5 465.5,-16.5 362.5,-16.5"/>
<text text-anchor="middle" x="389" y="-30.8" font-family="Helvetica,Arial,sans-serif" font-size="14.00">:these</text>
<polyline fill="none" stroke="black" points="415.5,-16.5 415.5,-52.5"/>
<text text-anchor="middle" x="440.5" y="-30.8" font-family="Helvetica,Arial,sans-serif" font-size="14.00">maps</text>
</g>
<!-- 4298867200&#45;&gt;4298637248 -->
<g id="edge3" class="edge">
<title>4298867200:f7&#45;&gt;4298637248</title>
<path fill="none" stroke="black" d="M414,-89C414,-80.76 414,-71.81 414,-63.63"/>
<polygon fill="black" stroke="black" points="417.5,-63.88 414,-53.88 410.5,-63.88 417.5,-63.88"/>
</g>
<!-- 4298868672 -->
<g id="node7" class="node">
<title>4298868672</title>
<polygon fill="none" stroke="black" points="630.5,-16.5 630.5,-52.5 717.5,-52.5 717.5,-16.5 630.5,-16.5"/>
<text text-anchor="middle" x="653.5" y="-30.8" font-family="Helvetica,Arial,sans-serif" font-size="14.00">:they</text>
<polyline fill="none" stroke="black" points="676.5,-16.5 676.5,-52.5"/>
<text text-anchor="middle" x="697" y="-30.8" font-family="Helvetica,Arial,sans-serif" font-size="14.00">look</text>
</g>
<!-- 4298867200&#45;&gt;4298868672 -->
<g id="edge4" class="edge">
<title>4298867200:f20&#45;&gt;4298868672</title>
<path fill="none" stroke="black" d="M674,-89C674,-80.76 674,-71.81 674,-63.63"/>
<polygon fill="black" stroke="black" points="677.5,-63.88 674,-53.88 670.5,-63.88 677.5,-63.88"/>
</g>
</g>
</svg>
