<?xml version="1.0" encoding="UTF-8" standalone="no"?>
<!DOCTYPE svg PUBLIC "-//W3C//DTD SVG 1.1//EN"
 "http://www.w3.org/Graphics/SVG/1.1/DTD/svg11.dtd">
<!-- Generated by graphviz version 7.0.6 (20230106.0513)
 -->
<!-- Title: vector1 Pages: 1 -->
<svg width="345pt" height="110pt"
 viewBox="0.00 0.00 345.00 110.00" xmlns="http://www.w3.org/2000/svg" xmlns:xlink="http://www.w3.org/1999/xlink">
<g id="graph0" class="graph" transform="scale(1 1) rotate(0) translate(4 106)">
<title>vector1</title>
<polygon fill="white" stroke="none" points="-4,4 -4,-106 341,-106 341,4 -4,4"/>
<g id="clust1" class="cluster">
<title>cluster_1</title>
<polygon fill="none" stroke="black" points="8,-8 8,-94 329,-94 329,-8 8,-8"/>
<text text-anchor="middle" x="168.5" y="-78.8" font-family="Helvetica,Arial,sans-serif" font-size="14.00">Each node is a max&#45;32 element tuple plus a height</text>
</g>
<!-- leaf0 -->
<g id="node1" class="node">
<title>leaf0</title>
<polygon fill="none" stroke="black" points="57.5,-16.5 57.5,-62.5 278.5,-62.5 278.5,-16.5 57.5,-16.5"/>
<text text-anchor="middle" x="84" y="-47.3" font-family="Helvetica,Arial,sans-serif" font-size="14.00">height</text>
<polyline fill="none" stroke="black" points="57.5,-39.5 110.5,-39.5"/>
<text text-anchor="middle" x="84" y="-24.3" font-family="Helvetica,Arial,sans-serif" font-size="14.00">0</text>
<polyline fill="none" stroke="black" points="110.5,-16.5 110.5,-62.5"/>
<text text-anchor="middle" x="194.5" y="-47.3" font-family="Helvetica,Arial,sans-serif" font-size="14.00">xs</text>
<polyline fill="none" stroke="black" points="110.5,-39.5 278.5,-39.5"/>
<text text-anchor="middle" x="122.5" y="-24.3" font-family="Helvetica,Arial,sans-serif" font-size="14.00">0</text>
<polyline fill="none" stroke="black" points="134.5,-16.5 134.5,-39.5"/>
<text text-anchor="middle" x="146.5" y="-24.3" font-family="Helvetica,Arial,sans-serif" font-size="14.00">1</text>
<polyline fill="none" stroke="black" points="158.5,-16.5 158.5,-39.5"/>
<text text-anchor="middle" x="170.5" y="-24.3" font-family="Helvetica,Arial,sans-serif" font-size="14.00">2</text>
<polyline fill="none" stroke="black" points="182.5,-16.5 182.5,-39.5"/>
<text text-anchor="middle" x="194.5" y="-24.3" font-family="Helvetica,Arial,sans-serif" font-size="14.00">3</text>
<polyline fill="none" stroke="black" points="206.5,-16.5 206.5,-39.5"/>
<text text-anchor="middle" x="218.5" y="-24.3" font-family="Helvetica,Arial,sans-serif" font-size="14.00">4</text>
<polyline fill="none" stroke="black" points="230.5,-16.5 230.5,-39.5"/>
<text text-anchor="middle" x="242.5" y="-24.3" font-family="Helvetica,Arial,sans-serif" font-size="14.00">5</text>
<polyline fill="none" stroke="black" points="254.5,-16.5 254.5,-39.5"/>
<text text-anchor="middle" x="266.5" y="-24.3" font-family="Helvetica,Arial,sans-serif" font-size="14.00">6</text>
</g>
</g>
</svg>
