<?xml version="1.0" encoding="UTF-8" standalone="no"?>
<!DOCTYPE svg PUBLIC "-//W3C//DTD SVG 1.1//EN"
 "http://www.w3.org/Graphics/SVG/1.1/DTD/svg11.dtd">
<!-- Generated by graphviz version 7.0.6 (20230106.0513)
 -->
<!-- Title: vector2 Pages: 1 -->
<svg width="911pt" height="193pt"
 viewBox="0.00 0.00 911.00 193.00" xmlns="http://www.w3.org/2000/svg" xmlns:xlink="http://www.w3.org/1999/xlink">
<g id="graph0" class="graph" transform="scale(1 1) rotate(0) translate(4 189)">
<title>vector2</title>
<polygon fill="white" stroke="none" points="-4,4 -4,-189 907,-189 907,4 -4,4"/>
<g id="clust1" class="cluster">
<title>cluster_2</title>
<polygon fill="none" stroke="black" points="8,-8 8,-177 895,-177 895,-8 8,-8"/>
<text text-anchor="middle" x="451.5" y="-161.8" font-family="monospace" font-size="14.00">(apply vector (range 99))</text>
</g>
<!-- n1 -->
<g id="node1" class="node">
<title>n1</title>
<polygon fill="none" stroke="black" points="375.5,-99.5 375.5,-145.5 508.5,-145.5 508.5,-99.5 375.5,-99.5"/>
<text text-anchor="middle" x="402" y="-130.3" font-family="Helvetica,Arial,sans-serif" font-size="14.00">height</text>
<polyline fill="none" stroke="black" points="375.5,-122.5 428.5,-122.5"/>
<text text-anchor="middle" x="402" y="-107.3" font-family="Helvetica,Arial,sans-serif" font-size="14.00">1</text>
<polyline fill="none" stroke="black" points="428.5,-99.5 428.5,-145.5"/>
<text text-anchor="middle" x="468.5" y="-130.3" font-family="Helvetica,Arial,sans-serif" font-size="14.00">xs</text>
<polyline fill="none" stroke="black" points="428.5,-122.5 508.5,-122.5"/>
<text text-anchor="middle" x="438.5" y="-107.3" font-family="Helvetica,Arial,sans-serif" font-size="14.00"> </text>
<polyline fill="none" stroke="black" points="448.5,-99.5 448.5,-122.5"/>
<text text-anchor="middle" x="458.5" y="-107.3" font-family="Helvetica,Arial,sans-serif" font-size="14.00"> </text>
<polyline fill="none" stroke="black" points="468.5,-99.5 468.5,-122.5"/>
<text text-anchor="middle" x="478.5" y="-107.3" font-family="Helvetica,Arial,sans-serif" font-size="14.00"> </text>
<polyline fill="none" stroke="black" points="488.5,-99.5 488.5,-122.5"/>
<text text-anchor="middle" x="498.5" y="-107.3" font-family="Helvetica,Arial,sans-serif" font-size="14.00"> </text>
</g>
<!-- l10 -->
<g id="node2" class="node">
<title>l10</title>
<polygon fill="none" stroke="black" points="16.5,-16.5 16.5,-62.5 233.5,-62.5 233.5,-16.5 16.5,-16.5"/>
<text text-anchor="middle" x="43" y="-47.3" font-family="Helvetica,Arial,sans-serif" font-size="14.00">height</text>
<polyline fill="none" stroke="black" points="16.5,-39.5 69.5,-39.5"/>
<text text-anchor="middle" x="43" y="-24.3" font-family="Helvetica,Arial,sans-serif" font-size="14.00">0</text>
<polyline fill="none" stroke="black" points="69.5,-16.5 69.5,-62.5"/>
<text text-anchor="middle" x="151.5" y="-47.3" font-family="Helvetica,Arial,sans-serif" font-size="14.00">xs</text>
<polyline fill="none" stroke="black" points="69.5,-39.5 233.5,-39.5"/>
<text text-anchor="middle" x="81.5" y="-24.3" font-family="Helvetica,Arial,sans-serif" font-size="14.00">0</text>
<polyline fill="none" stroke="black" points="93.5,-16.5 93.5,-39.5"/>
<text text-anchor="middle" x="105.5" y="-24.3" font-family="Helvetica,Arial,sans-serif" font-size="14.00">1</text>
<polyline fill="none" stroke="black" points="117.5,-16.5 117.5,-39.5"/>
<text text-anchor="middle" x="129.5" y="-24.3" font-family="Helvetica,Arial,sans-serif" font-size="14.00">2</text>
<polyline fill="none" stroke="black" points="141.5,-16.5 141.5,-39.5"/>
<text text-anchor="middle" x="155.5" y="-24.3" font-family="Helvetica,Arial,sans-serif" font-size="14.00">...</text>
<polyline fill="none" stroke="black" points="169.5,-16.5 169.5,-39.5"/>
<text text-anchor="middle" x="185.5" y="-24.3" font-family="Helvetica,Arial,sans-serif" font-size="14.00">30</text>
<polyline fill="none" stroke="black" points="201.5,-16.5 201.5,-39.5"/>
<text text-anchor="middle" x="217.5" y="-24.3" font-family="Helvetica,Arial,sans-serif" font-size="14.00">31</text>
</g>
<!-- n1&#45;&gt;l10 -->
<g id="edge1" class="edge">
<title>n1:f0&#45;&gt;l10</title>
<path fill="none" stroke="black" d="M438,-99C438,-57.69 304.68,-69.34 244.37,-62.76"/>
<polygon fill="black" stroke="black" points="245.24,-59.35 234.84,-61.4 244.24,-66.28 245.24,-59.35"/>
</g>
<!-- l11 -->
<g id="node3" class="node">
<title>l11</title>
<polygon fill="none" stroke="black" points="251.5,-16.5 251.5,-62.5 460.5,-62.5 460.5,-16.5 251.5,-16.5"/>
<text text-anchor="middle" x="278" y="-47.3" font-family="Helvetica,Arial,sans-serif" font-size="14.00">height</text>
<polyline fill="none" stroke="black" points="251.5,-39.5 304.5,-39.5"/>
<text text-anchor="middle" x="278" y="-24.3" font-family="Helvetica,Arial,sans-serif" font-size="14.00">0</text>
<polyline fill="none" stroke="black" points="304.5,-16.5 304.5,-62.5"/>
<text text-anchor="middle" x="382.5" y="-47.3" font-family="Helvetica,Arial,sans-serif" font-size="14.00">xs</text>
<polyline fill="none" stroke="black" points="304.5,-39.5 460.5,-39.5"/>
<text text-anchor="middle" x="320.5" y="-24.3" font-family="Helvetica,Arial,sans-serif" font-size="14.00">32</text>
<polyline fill="none" stroke="black" points="336.5,-16.5 336.5,-39.5"/>
<text text-anchor="middle" x="352.5" y="-24.3" font-family="Helvetica,Arial,sans-serif" font-size="14.00">33</text>
<polyline fill="none" stroke="black" points="368.5,-16.5 368.5,-39.5"/>
<text text-anchor="middle" x="382.5" y="-24.3" font-family="Helvetica,Arial,sans-serif" font-size="14.00">...</text>
<polyline fill="none" stroke="black" points="396.5,-16.5 396.5,-39.5"/>
<text text-anchor="middle" x="412.5" y="-24.3" font-family="Helvetica,Arial,sans-serif" font-size="14.00">62</text>
<polyline fill="none" stroke="black" points="428.5,-16.5 428.5,-39.5"/>
<text text-anchor="middle" x="444.5" y="-24.3" font-family="Helvetica,Arial,sans-serif" font-size="14.00">63</text>
</g>
<!-- n1&#45;&gt;l11 -->
<g id="edge2" class="edge">
<title>n1:f1&#45;&gt;l11</title>
<path fill="none" stroke="black" d="M459,-99C459,-86.69 453.37,-76.94 444.74,-69.22"/>
<polygon fill="black" stroke="black" points="446.95,-66.5 436.84,-63.33 442.76,-72.12 446.95,-66.5"/>
</g>
<!-- l12 -->
<g id="node4" class="node">
<title>l12</title>
<polygon fill="none" stroke="black" points="478.5,-16.5 478.5,-62.5 687.5,-62.5 687.5,-16.5 478.5,-16.5"/>
<text text-anchor="middle" x="505" y="-47.3" font-family="Helvetica,Arial,sans-serif" font-size="14.00">height</text>
<polyline fill="none" stroke="black" points="478.5,-39.5 531.5,-39.5"/>
<text text-anchor="middle" x="505" y="-24.3" font-family="Helvetica,Arial,sans-serif" font-size="14.00">0</text>
<polyline fill="none" stroke="black" points="531.5,-16.5 531.5,-62.5"/>
<text text-anchor="middle" x="609.5" y="-47.3" font-family="Helvetica,Arial,sans-serif" font-size="14.00">xs</text>
<polyline fill="none" stroke="black" points="531.5,-39.5 687.5,-39.5"/>
<text text-anchor="middle" x="547.5" y="-24.3" font-family="Helvetica,Arial,sans-serif" font-size="14.00">64</text>
<polyline fill="none" stroke="black" points="563.5,-16.5 563.5,-39.5"/>
<text text-anchor="middle" x="579.5" y="-24.3" font-family="Helvetica,Arial,sans-serif" font-size="14.00">65</text>
<polyline fill="none" stroke="black" points="595.5,-16.5 595.5,-39.5"/>
<text text-anchor="middle" x="609.5" y="-24.3" font-family="Helvetica,Arial,sans-serif" font-size="14.00">...</text>
<polyline fill="none" stroke="black" points="623.5,-16.5 623.5,-39.5"/>
<text text-anchor="middle" x="639.5" y="-24.3" font-family="Helvetica,Arial,sans-serif" font-size="14.00">94</text>
<polyline fill="none" stroke="black" points="655.5,-16.5 655.5,-39.5"/>
<text text-anchor="middle" x="671.5" y="-24.3" font-family="Helvetica,Arial,sans-serif" font-size="14.00">95</text>
</g>
<!-- n1&#45;&gt;l12 -->
<g id="edge3" class="edge">
<title>n1:f2&#45;&gt;l12</title>
<path fill="none" stroke="black" d="M479,-99C479,-86.68 484.62,-76.92 493.24,-69.21"/>
<polygon fill="black" stroke="black" points="495.2,-72.11 501.13,-63.32 491.02,-66.5 495.2,-72.11"/>
</g>
<!-- l13 -->
<g id="node5" class="node">
<title>l13</title>
<polygon fill="none" stroke="black" points="705.5,-16.5 705.5,-62.5 886.5,-62.5 886.5,-16.5 705.5,-16.5"/>
<text text-anchor="middle" x="732" y="-47.3" font-family="Helvetica,Arial,sans-serif" font-size="14.00">height</text>
<polyline fill="none" stroke="black" points="705.5,-39.5 758.5,-39.5"/>
<text text-anchor="middle" x="732" y="-24.3" font-family="Helvetica,Arial,sans-serif" font-size="14.00">0</text>
<polyline fill="none" stroke="black" points="758.5,-16.5 758.5,-62.5"/>
<text text-anchor="middle" x="822.5" y="-47.3" font-family="Helvetica,Arial,sans-serif" font-size="14.00">xs</text>
<polyline fill="none" stroke="black" points="758.5,-39.5 886.5,-39.5"/>
<text text-anchor="middle" x="774.5" y="-24.3" font-family="Helvetica,Arial,sans-serif" font-size="14.00">96</text>
<polyline fill="none" stroke="black" points="790.5,-16.5 790.5,-39.5"/>
<text text-anchor="middle" x="806.5" y="-24.3" font-family="Helvetica,Arial,sans-serif" font-size="14.00">97</text>
<polyline fill="none" stroke="black" points="822.5,-16.5 822.5,-39.5"/>
<text text-anchor="middle" x="838.5" y="-24.3" font-family="Helvetica,Arial,sans-serif" font-size="14.00">98</text>
<polyline fill="none" stroke="black" points="854.5,-16.5 854.5,-39.5"/>
<text text-anchor="middle" x="870.5" y="-24.3" font-family="Helvetica,Arial,sans-serif" font-size="14.00">99</text>
</g>
<!-- n1&#45;&gt;l13 -->
<g id="edge4" class="edge">
<title>n1:f3&#45;&gt;l13</title>
<path fill="none" stroke="black" d="M510,-110.5C587.08,-110.5 672.58,-86.22 729.84,-66.25"/>
<polygon fill="black" stroke="black" points="730.86,-69.6 739.12,-62.96 728.52,-63.01 730.86,-69.6"/>
</g>
</g>
</svg>
